HIERARCHY
ROOT root
{
	OFFSET	0	13.1	24.9
	CHANNELS 6  Xposition Yposition Zposition Xrotation Yrotation Zrotation
	JOINT spine_1
	{
		OFFSET	0	9.99999	0
		CHANNELS 3  Xrotation Yrotation Zrotation
		JOINT spine_2
		{
			OFFSET	0	112	-10
			CHANNELS 3  Xrotation Yrotation Zrotation
			JOINT spine_3
			{
				OFFSET	0	206.5	19.3
				CHANNELS 3  Xrotation Yrotation Zrotation
				JOINT spine_4
				{
					OFFSET	0	110.4	14.6
					CHANNELS 3  Xrotation Yrotation Zrotation
					JOINT neck_1
					{
						OFFSET	0	71.8	-50.3
						CHANNELS 3  Xrotation Yrotation Zrotation
						JOINT neck_2
						{
							OFFSET	0	86.2	-25.8
							CHANNELS 3  Xrotation Yrotation Zrotation
							JOINT head_ee
							{
								OFFSET	0	179.8	-8.7
								CHANNELS 3  Xrotation Yrotation Zrotation
								End Site
								{
									OFFSET	1	0	0
								}
							}
						}
					}
					JOINT left_clavicle
					{
						OFFSET	-43.2	22.4	-70.8
						CHANNELS 3  Xrotation Yrotation Zrotation
						JOINT left_shoulder
						{
							OFFSET	-93.9	-5.79999	48.7
							CHANNELS 3  Xrotation Yrotation Zrotation
							JOINT left_elbow
							{
								OFFSET	-291.4	-30.8	15.2
								CHANNELS 3  Xrotation Yrotation Zrotation
								JOINT left_lowarm_twist
								{
									OFFSET	-110.7	-3.89999	13.6
									CHANNELS 3  Xrotation Yrotation Zrotation
									JOINT left_hand
									{
										OFFSET	-110.7	-3.89999	13.6
										CHANNELS 3  Xrotation Yrotation Zrotation
										JOINT left_ee
										{
											OFFSET	-80.8	-5.10001	12.1
											CHANNELS 3  Xrotation Yrotation Zrotation
											End Site
											{
												OFFSET	1	0	0
											}
										}
									}
								}
							}
						}
					}
					JOINT right_clavicle
					{
						OFFSET	43.2	22.4	-70.8
						CHANNELS 3  Xrotation Yrotation Zrotation
						JOINT right_shoulder
						{
							OFFSET	93.9	-5.79999	48.7
							CHANNELS 3  Xrotation Yrotation Zrotation
							JOINT right_elbow
							{
								OFFSET	291.4	-30.8	15.2
								CHANNELS 3  Xrotation Yrotation Zrotation
								JOINT right_lowarm_twist
								{
									OFFSET	110.7	-3.89999	13.6
									CHANNELS 3  Xrotation Yrotation Zrotation
									JOINT right_hand
									{
										OFFSET	110.7	-3.89999	13.6
										CHANNELS 3  Xrotation Yrotation Zrotation
										JOINT right_ee
										{
											OFFSET	80.8	-5.10001	12.1
											CHANNELS 3  Xrotation Yrotation Zrotation
											End Site
											{
												OFFSET	1	0	0
											}
										}
									}
								}
							}
						}
					}
				}
			}
		}
	}
	JOINT left_hip
	{
		OFFSET	-82.8	-127.5	0.300001
		CHANNELS 3  Xrotation Yrotation Zrotation
		JOINT left_knee
		{
			OFFSET	-28.2	-396.7	2.2
			CHANNELS 3  Xrotation Yrotation Zrotation
			JOINT left_ankle
			{
				OFFSET	-11.7	-411.3	35.4
				CHANNELS 3  Xrotation Yrotation Zrotation
				JOINT left_toes
				{
					OFFSET	0	-60	-88.6
					CHANNELS 3  Xrotation Yrotation Zrotation
					JOINT left_foot_ee
					{
						OFFSET	-22.5	-16.5	-42.2
						CHANNELS 3  Xrotation Yrotation Zrotation
						End Site
						{
							OFFSET	1	0	0
						}
					}
				}
			}
		}
	}
	JOINT right_hip
	{
		OFFSET	82.8	-127.5	0.300001
		CHANNELS 3  Xrotation Yrotation Zrotation
		JOINT right_knee
		{
			OFFSET	28.2	-396.7	2.2
			CHANNELS 3  Xrotation Yrotation Zrotation
			JOINT right_ankle
			{
				OFFSET	11.7	-411.3	35.4
				CHANNELS 3  Xrotation Yrotation Zrotation
				JOINT right_toes
				{
					OFFSET	0	-60	-88.6
					CHANNELS 3  Xrotation Yrotation Zrotation
					JOINT right_foot_ee
					{
						OFFSET	22.5	-16.5	-42.2
						CHANNELS 3  Xrotation Yrotation Zrotation
						End Site
						{
							OFFSET	1	0	0
						}
					}
				}
			}
		}
	}
}
MOTION
Frames: 8
Frame Time: 0.02
3616.44 715.298 -728.92 -11.9457 38.5349 8.6942 3.31139 0.264489 1.3648 3.31241 0.177116 1.37886 3.31628 -0.0363022 1.38971 3.31364 0.183611 1.37801 -4.98107 -16.0657 1.48598 -4.73925 -30.6929 -1.25448 -0.0 0.0 -0.0 -2.40363 23.1442 -0.633468 -16.4073 -32.9046 67.9174 0.581186 -16.0614 0.0819988 1.51685 0.0509698 -0.187023 -0.687332 28.6651 7.46717 -0.0 0.0 -0.0 9.16616 17.0977 -17.7375 -10.7834 17.7276 -61.9704 1.79237 41.5977 -0.680864 7.34494 -0.200284 0.916213 2.45557 6.12952 -14.1079 0.0 0.0 0.0 26.736 2.53376 -6.25636 -49.96 -1.21869 7.33141 21.1705 1.90155 -2.8862 19.5304 -0.0 -0.0 -0.0 0.0 -0.0 17.6186 -19.4734 10.6407 -16.933 -0.319544 -2.56944 37.3007 -27.2207 4.97316 -10.4832 0.0 0.0 0.0 0.0 0.0 
3609.86 717.668 -722.964 -12.6019 39.3754 9.48765 3.32701 0.245711 1.60982 3.32844 0.14279 1.62219 3.33192 -0.107093 1.62494 3.32827 0.150844 1.62146 -4.88211 -16.0152 1.26851 -4.63802 -30.425 -1.44133 -0.0 0.0 -0.0 -2.3841 23.2596 -0.585741 -15.3611 -33.4873 67.3124 0.60153 -16.5932 0.0877177 1.14474 0.0389249 -0.14102 -0.89535 28.5767 6.30243 -0.0 0.0 -0.0 8.97128 17.3105 -17.2943 -11.9645 17.3617 -62.318 1.71429 40.3347 -0.629666 7.19824 -0.19744 0.89769 2.3013 4.07985 -13.9031 0.0 0.0 0.0 26.1373 4.7009 -5.6748 -50.4201 -1.25895 7.38972 20.4643 0.39646 -2.80709 19.4337 -0.0 -0.0 -0.0 0.0 -0.0 17.6028 -19.0167 10.3613 -17.7494 -0.315638 -2.69464 35.5565 -27.0333 4.78331 -11.1612 0.0 0.0 0.0 0.0 0.0 
3592.3 718.403 -719.594 -12.0634 39.9854 9.07555 3.23767 0.405465 1.63901 3.23911 0.300364 1.66148 3.24732 0.0401853 1.68793 3.24348 0.306221 1.66042 -7.01773 -15.9308 -0.412003 -7.024 -29.3539 -3.70471 -0.0 0.0 -0.0 -2.8354 23.5849 -1.1454 -10.8492 -34.8754 69.1498 0.64532 -17.7278 0.100639 -0.522494 -0.0187025 0.0641056 -1.60559 28.8818 2.60321 -0.0 0.0 -0.0 8.94699 18.4643 -17.1669 -13.3248 17.0634 -62.7064 1.52918 37.1419 -0.513791 7.12166 -0.195935 0.888022 2.05139 1.09441 -13.4011 0.0 0.0 0.0 25.1576 5.02469 -3.50744 -49.5485 -1.18308 7.279 20.8839 3.91532 -2.84389 17.295 -0.0 -0.0 -0.0 0.0 -0.0 18.1812 -14.4107 8.14249 -25.2212 -0.197247 -3.83425 39.2717 -26.4677 5.14647 -10.6093 0.0 0.0 0.0 0.0 0.0 
3582.72 713.976 -712.835 -12.191 40.4228 9.32923 3.19124 0.478744 1.4323 3.1923 0.386643 1.45985 3.20182 0.155405 1.50216 3.19889 0.390667 1.45878 -8.64306 -15.5833 -1.731 -8.79235 -28.0189 -5.34705 -0.0 0.0 -0.0 -3.23637 23.7875 -1.6539 -7.17072 -35.8382 70.1679 0.698211 -19.0792 0.117338 -2.00135 -0.0748016 0.244606 -2.11874 28.5687 -0.302013 -0.0 0.0 -0.0 8.91803 19.5658 -17.0259 -14.2347 16.9686 -62.5799 1.39977 34.7357 -0.43782 7.00123 -0.193544 0.872825 1.86034 -1.24233 -13.0222 0.0 0.0 0.0 25.4772 4.4742 -3.47031 -47.9311 -1.0468 7.07059 21.3968 7.77052 -2.90261 15.8009 -0.0 -0.0 -0.0 0.0 -0.0 19.915 -8.38055 10.4403 -30.4505 -0.0265481 -4.61836 41.0169 -26.1436 5.30407 -10.3643 0.0 0.0 0.0 0.0 0.0 
3576.16 720.828 -706.664 -11.0741 42.4445 8.2418 3.01431 0.524217 1.46053 3.0154 0.430228 1.49092 3.02633 0.188939 1.5402 3.02327 0.429786 1.49105 -9.80866 -14.9547 -2.8047 -10.0161 -26.279 -6.5104 -0.0 0.0 -0.0 -3.27687 24.0592 -1.65305 -6.32468 -36.9535 69.3841 0.732513 -19.9441 0.128795 -4.01771 -0.15877 0.488294 -2.55227 25.087 -4.45788 -0.0 0.0 -0.0 8.7124 19.9957 -16.5391 -14.7854 16.3127 -62.5608 1.28263 32.4294 -0.373008 7.275 -0.198934 0.907381 1.40715 -4.76753 -11.3232 0.0 0.0 0.0 24.9961 2.67221 -0.0251504 -49.5726 -1.18515 7.28208 25.8177 12.8828 -3.44566 14.3763 -0.0 -0.0 -0.0 0.0 -0.0 21.2746 1.10838 9.86872 -37.0554 0.29014 -5.58163 40.9162 -27.2631 5.33576 -8.13463 0.0 0.0 0.0 0.0 0.0 
3561.81 717.108 -703.779 -10.811 43.8767 6.98452 2.96306 0.525887 1.44735 2.96412 0.432733 1.47787 2.97504 0.19211 1.52788 2.97204 0.430973 1.47838 -9.69899 -14.8043 -3.21678 -9.88089 -25.7001 -6.84002 -0.0 0.0 -0.0 -2.94333 24.0096 -1.20984 -5.13964 -38.5319 69.5964 0.810266 -21.8695 0.156545 -5.43105 -0.222724 0.657298 -2.78635 22.142 -7.37075 -0.0 0.0 -0.0 8.73992 20.2318 -16.5821 -15.8541 15.7867 -62.729 1.11433 28.8981 -0.287138 7.00527 -0.193625 0.873334 0.969037 -8.02625 -9.66066 0.0 0.0 0.0 24.0307 0.746954 2.97162 -51.6928 -1.37277 7.54932 29.5918 17.6949 -3.92275 13.3874 -0.0 -0.0 -0.0 0.0 -0.0 22.9087 10.6968 9.12328 -42.196 0.612355 -6.30293 40.4794 -26.1706 5.25372 -6.63348 0.0 0.0 0.0 0.0 0.0 
3548.45 715.661 -703.911 -9.1769 45.4807 5.85274 2.5693 0.350018 1.48714 2.57049 0.254689 1.50639 2.57701 0.0011168 1.52776 2.57383 0.242357 1.50842 -10.8394 -14.4098 -3.87757 -11.0677 -24.6946 -7.62241 -0.0 0.0 -0.0 -3.01248 22.9855 -1.5073 -4.65655 -39.4384 69.2869 0.87304 -23.3872 0.1807 -5.79796 -0.240008 0.700914 -2.95406 19.1916 -9.97887 -0.0 0.0 -0.0 8.32539 19.5598 -15.7177 -17.3239 15.7578 -63.6525 1.11262 28.8609 -0.286311 6.64593 -0.186304 0.828016 0.602434 -10.8641 -8.35821 0.0 0.0 0.0 22.9771 -0.785537 4.56038 -53.067 -1.49964 7.7188 32.1634 19.5494 -4.23372 11.5028 -0.0 -0.0 -0.0 0.0 -0.0 26.2077 15.9111 9.32659 -49.4988 1.1788 -7.27265 38.7012 -22.6932 4.97365 -5.72541 0.0 0.0 0.0 0.0 0.0 
3528.1 719.008 -705.385 -7.92722 46.5221 5.29839 2.01796 0.277542 1.64895 2.01946 0.172068 1.66327 2.02442 -0.122531 1.66765 2.02057 0.142343 1.66607 -11.5927 -13.7358 -3.20954 -11.8655 -23.9613 -6.95858 -0.0 0.0 -0.0 -3.09529 22.275 -1.76511 -4.20413 -39.9208 68.8678 0.968473 -25.6291 0.220295 -6.50085 -0.273899 0.784159 -3.07268 17.1576 -11.8317 -0.0 0.0 -0.0 7.99424 17.8025 -15.1148 -18.811 15.8841 -64.193 1.09968 28.5785 -0.280094 6.41515 -0.181451 0.798935 0.470165 -12.8804 -8.28156 0.0 0.0 0.0 21.5334 -4.92355 7.34561 -54.0883 -1.59656 7.84279 35.3226 20.6454 -4.58711 10.1974 -0.0 -0.0 -0.0 0.0 -0.0 30.5844 20.3688 7.04682 -55.0945 1.69421 -7.96327 35.4457 -18.5856 4.55866 -5.45788 0.0 0.0 0.0 0.0 0.0 
